<svg width="149" height="31" viewBox="0 0 149 31" fill="none" xmlns="http://www.w3.org/2000/svg">
<path d="M12 23.7447V0.659574H17.1691L24.7527 15.3021L32.2342 0.659574H37.4033V23.7447H33.0504V7.81596L26.419 20.4468H22.9843L16.3529 7.81596V23.7447H12Z" fill="#0F0F0F"/>
<path d="M49.0954 24.1404C47.395 24.1404 45.8874 23.7887 44.5724 23.0851C43.2575 22.3816 42.2259 21.3922 41.4778 20.117C40.7296 18.8418 40.3555 17.3688 40.3555 15.6979C40.3555 14.005 40.7183 12.4989 41.4438 11.1798C42.1919 9.86064 43.2121 8.8383 44.5044 8.11277C45.8193 7.36525 47.361 6.99149 49.1294 6.99149C50.7844 6.99149 52.2467 7.34326 53.5163 8.04681C54.7859 8.75035 55.7721 9.71773 56.4749 10.9489C57.2004 12.1582 57.5631 13.5103 57.5631 15.0053C57.5631 15.2472 57.5518 15.5 57.5291 15.7638C57.5291 16.0277 57.5178 16.3025 57.4951 16.5883H44.6744C44.7651 17.8635 45.2186 18.8638 46.0347 19.5894C46.8736 20.3149 47.8824 20.6777 49.0614 20.6777C49.9455 20.6777 50.6824 20.4908 51.2718 20.117C51.8839 19.7213 52.3374 19.2156 52.6321 18.6H57.053C56.7356 19.6333 56.2029 20.5787 55.4547 21.4362C54.7292 22.2716 53.8224 22.9312 52.7341 23.4149C51.6686 23.8986 50.4557 24.1404 49.0954 24.1404ZM49.1294 10.4213C48.0638 10.4213 47.123 10.7181 46.3068 11.3117C45.4906 11.8833 44.9692 12.7628 44.7425 13.95H53.1422C53.0742 12.8727 52.6661 12.0152 51.918 11.3777C51.1698 10.7401 50.2403 10.4213 49.1294 10.4213Z" fill="#0F0F0F"/>
<path d="M60.204 23.7447V0H64.5569V23.7447H60.204Z" fill="#0F0F0F"/>
<path d="M75.5 23.7447C73.7316 23.7447 72.3147 23.327 71.2491 22.4915C70.1836 21.656 69.6508 20.172 69.6508 18.0394V10.916H66.7602V7.38723H69.6508L70.1609 3.00106H74.0037V7.38723H78.5607V10.916H74.0037V18.0723C74.0037 18.8638 74.1737 19.4135 74.5138 19.7213C74.8766 20.0071 75.4887 20.15 76.3502 20.15H78.4586V23.7447H75.5Z" fill="#0F0F0F"/>
<path d="M88.9397 24.1404C87.3074 24.1404 85.8337 23.7777 84.5188 23.0521C83.2265 22.3266 82.195 21.3262 81.4242 20.0511C80.676 18.7539 80.3019 17.2589 80.3019 15.566C80.3019 13.873 80.6873 12.389 81.4582 11.1138C82.229 9.81667 83.2605 8.80532 84.5528 8.07979C85.8678 7.35426 87.3414 6.99149 88.9737 6.99149C90.5834 6.99149 92.0344 7.35426 93.3266 8.07979C94.6416 8.80532 95.6731 9.81667 96.4213 11.1138C97.1921 12.389 97.5775 13.873 97.5775 15.566C97.5775 17.2589 97.1921 18.7539 96.4213 20.0511C95.6731 21.3262 94.6416 22.3266 93.3266 23.0521C92.0117 23.7777 90.5494 24.1404 88.9397 24.1404ZM88.9397 20.4798C90.0733 20.4798 91.0595 20.073 91.8983 19.2596C92.7372 18.4241 93.1566 17.1929 93.1566 15.566C93.1566 13.939 92.7372 12.7188 91.8983 11.9053C91.0595 11.0699 90.0846 10.6521 88.9737 10.6521C87.8175 10.6521 86.8199 11.0699 85.9811 11.9053C85.1649 12.7188 84.7569 13.939 84.7569 15.566C84.7569 17.1929 85.1649 18.4241 85.9811 19.2596C86.8199 20.073 87.8062 20.4798 88.9397 20.4798Z" fill="#0F0F0F"/>
<path d="M100.449 23.7447V7.38723H104.292L104.632 10.1574C105.154 9.19007 105.902 8.42057 106.877 7.84894C107.874 7.2773 109.042 6.99149 110.379 6.99149C112.465 6.99149 114.086 7.62908 115.242 8.90425C116.399 10.1794 116.977 12.0482 116.977 14.5106V23.7447H112.624V14.9064C112.624 13.4993 112.329 12.422 111.74 11.6745C111.15 10.927 110.232 10.5532 108.985 10.5532C107.761 10.5532 106.752 10.9709 105.958 11.8064C105.188 12.6418 104.802 13.8071 104.802 15.3021V23.7447H100.449Z" fill="#0F0F0F"/>
<path d="M121.663 31L125.574 22.6564H124.553L117.99 7.38723H122.717L127.444 18.8968L132.375 7.38723H137L126.288 31H121.663Z" fill="#0F0F0F"/>
<rect width="2" height="24" fill="#BFBFBF"/>
<rect x="147" width="2" height="24" fill="#BFBFBF"/>
</svg>
